<svg xmlns="http://www.w3.org/2000/svg" data-name="Layer 1" viewBox="80.218 361.547 2839.559 2276.951"><path fill="#f5f7f7" d="M452.83 2135.23s-264-133.93-242.27-413.74 288.33-357.55 288.33-357.55-184-132.37-47.6-380 398-140.17 398-140.17 60.76-327.28 455.81-373.4 510.36 222.49 510.36 222.49 180.43-153 389.36-79.21S2423.09 927 2423.09 927s156.18 33.41 234.86 195.36-67.83 353.24-67.83 353.24 17.18 14 20.8 47.48-5.43 49.74-5.43 49.74 161.05 41.52 183.43 284.22-173 411.81-173 411.81l-1908.19-9.33s-50.23-60.22 31.39-73.52 153.53-4.74 153.53-4.74-343.71-14.34-439.82-46.03Z" class="colorf5f5f7 svgShape"></path><ellipse cx="1561.9" cy="2266.98" fill="#dff3f1" rx="1064.75" ry="98.13" class="colordfe9f3 svgShape"></ellipse><ellipse cx="937.02" cy="2407.64" fill="#dff3f1" rx="362.22" ry="38.46" class="colordfe9f3 svgShape"></ellipse><ellipse cx="1892.23" cy="2415.81" fill="#dff3f1" rx="489.81" ry="20.52" class="colordfe9f3 svgShape"></ellipse><ellipse cx="2134.26" cy="2504.47" fill="#dff3f1" rx="460.34" ry="30.53" class="colordfe9f3 svgShape"></ellipse><ellipse cx="2531.48" cy="2374.56" fill="#dff3f1" rx="96.48" ry="14.74" class="colordfe9f3 svgShape"></ellipse><ellipse cx="1356.83" cy="2490.07" fill="#dff3f1" rx="109.94" ry="16.13" class="colordfe9f3 svgShape"></ellipse><ellipse cx="2535.76" cy="2150.06" fill="#dff3f1" rx="157.33" ry="18.79" class="colordfe9f3 svgShape"></ellipse><ellipse cx="643.05" cy="2135.23" fill="#dff3f1" rx="190.22" ry="29.72" class="colordfe9f3 svgShape"></ellipse><ellipse cx="545.54" cy="2042.62" fill="#dff3f1" rx="117.05" ry="17.33" class="colordfe9f3 svgShape"></ellipse><path fill="#aed3cf" d="M2273.06 2228.17c0-17.32-310.91-31.36-694.44-31.36s-694.45 14-694.45 31.36c0 13.13 178.57 24.37 432 29-65.11 5.38-107.24 14-107.24 23.63 0 16.3 119.69 29.51 267.33 29.51s267.33-13.21 267.33-29.51v-.12c73.34-1 130.25-8.17 130.25-16.88 0-2.5-4.7-4.88-13.13-7 242.94-4.8 412.35-15.8 412.35-28.63Z" class="coloraec5d3 svgShape"></path><circle cx="1443.07" cy="1395.68" r="315.4" fill="#f8c67a" class="colorf8ac7a svgShape"></circle><path fill="#f1be70" d="M1758.48 1395.68c0 174.19-141.21 315.41-315.41 315.41s-315.41-141.21-315.41-315.41a316.69 316.69 0 0 1 1.78-33.64 314.6 314.6 0 0 0 232.91 102.71c162.82 0 296.83-123.39 313.63-281.76a314.26 314.26 0 0 1 82.5 212.69Z" class="colorf18c70 svgShape"></path><circle cx="2153.24" cy="1395.68" r="315.4" fill="#f8c67a" class="colorf8ac7a svgShape"></circle><path fill="#f1be70" d="M2453 1494c-41.31 126-159.91 217.08-299.76 217.08-174.19 0-315.39-141.21-315.39-315.41 0-110.93 57.26-208.49 143.84-264.72a315 315 0 0 0-15.63 98.33c0 174.19 141.21 315.41 315.41 315.41A313.91 313.91 0 0 0 2453 1494Z" class="colorf18c70 svgShape"></path><circle cx="1437.19" cy="1376.11" r="41.15" fill="#c79e60" class="colorc76061 svgShape"></circle><circle cx="2153.24" cy="1376.11" r="41.15" fill="#c79e60" class="colorc76061 svgShape"></circle><path fill="none" d="M2204.83 1516v592.15c0 22.29-17.83 40.37-39.8 40.37H1219c-22 0-39.8-18.08-39.8-40.37V1516c0-22.29 17.83-40.37 39.8-40.37h946c22-.03 39.83 18.05 39.83 40.37Z"></path><path fill="#fcce89" d="M2204.83 1516v592.15c0 22.29-17.83 40.37-39.8 40.37H1219c-22 0-39.8-18.08-39.8-40.37V1516c0-22.29 17.83-40.37 39.8-40.37h946c22-.03 39.83 18.05 39.83 40.37Z" class="colorfccd89 svgShape"></path><path fill="#f8c67a" d="M2204.83 1516v592.15c0 22.29-17.83 40.37-39.8 40.37H1219c-22 0-39.8-18.08-39.8-40.37v-53.23h907.13c22 0 39.8-18.08 39.8-40.37V1475.6H2165c22 0 39.83 18.08 39.83 40.4Z" class="colorf8ac7a svgShape"></path><path fill="#f8c67a" d="M2037.6 1650.61h-666.75a8.51 8.51 0 0 1-8.5-8.5v-72.54a8.51 8.51 0 0 1 8.5-8.5h666.75a8.51 8.51 0 0 1 8.5 8.5v72.54a8.51 8.51 0 0 1-8.5 8.5Z" class="colorf8ac7a svgShape"></path><path fill="#f1be70" d="M1442.39 1561.07h71.9v89.54h-71.9zM1592.98 1561.07h71.9v89.54h-71.9zM1743.57 1561.07h71.9v89.54h-71.9zM1894.16 1561.07h71.9v89.54h-71.9zM1845.05 2208.19H1539a13.83 13.83 0 0 1-13.83-13.83v-45.86h333.73v45.86a13.83 13.83 0 0 1-13.85 13.83Z" class="colorf18c70 svgShape"></path><path fill="#c79e60" d="M1525.15 2148.49h333.73v20.35h-333.73z" class="colorc76061 svgShape"></path><circle cx="1288.96" cy="1577.21" r="16.15" fill="#482757" class="color273657 svgShape"></circle><circle cx="1288.96" cy="1634.46" r="16.15" fill="#ffffff" class="colorffffff svgShape"></circle><path fill="#f1be70" d="M2281 1945.68h-76.9v-308h76.9a14 14 0 0 1 14 14v280a14 14 0 0 1-14 14Z" class="colorf18c70 svgShape"></path><path fill="#c79e60" d="M2204.15 1637.72h23.06v307.96h-23.06z" class="colorc76061 svgShape"></path><path fill="#ffdfb0" d="M2036.74 1987.73h-566a27.68 27.68 0 0 1-27.68-27.68v-188.84a27.68 27.68 0 0 1 27.68-27.68h566a27.68 27.68 0 0 1 27.68 27.68v188.84a27.68 27.68 0 0 1-27.68 27.68Z" class="colorfff5b0 svgShape"></path><path fill="#f1be70" d="M1179.2 1718.44v218.42l-297.1 78.68v-397.22l223.4 75.28 73.7 24.84z" class="colorf18c70 svgShape"></path><path fill="#c79e60" d="M1179.2 1718.44v218.42l-297.1 78.69v-64.9c29.21-4.64 59.2-13.16 88.18-27.35 81.55-39.94 118.69-150.32 135.22-229.69Z" class="colorc76061 svgShape"></path><path fill="#fcce89" d="M867.1 2076.59h-67.68a15 15 0 0 1-15-15V1589.5a15 15 0 0 1 15-15h67.68a15 15 0 0 1 15 15v472.09a15 15 0 0 1-15 15Z" class="colorfccd89 svgShape"></path><path fill="#c79e60" d="M1848.06 1479.1a3.51 3.51 0 0 1-3.34-2.45c-.67-2.13-16.3-53-7.69-121.76a307.59 307.59 0 0 1 37.06-113.24c24.39-43.39 59.92-81.6 105.59-113.56a3.5 3.5 0 0 1 4 5.74c-101.41 71-132 159.85-139.73 221.93-8.42 67.28 7.27 118.28 7.43 118.79a3.5 3.5 0 0 1-3.34 4.55ZM2020.43 1113a3.5 3.5 0 0 1-1.62-6.61c1-.51 24.59-12.61 61.68-21.47 34.24-8.19 86.75-14.92 142.48-.51a3.5 3.5 0 0 1-1.75 6.78c-54.26-14-105.48-7.48-138.9.49-36.31 8.65-60.05 20.8-60.29 20.93a3.53 3.53 0 0 1-1.6.39ZM1179.2 1572a3.47 3.47 0 0 1-2.88-1.52c-1.06-1.54-26-38.24-41-95.8a324.89 324.89 0 0 1-10.48-100.9 302.77 302.77 0 0 1 32.42-119.65 3.5 3.5 0 0 1 6.25 3.15c-42.32 83.9-35 163.43-21.48 215.37 14.73 56.45 39.86 93.5 40.11 93.87a3.49 3.49 0 0 1-.91 4.86 3.43 3.43 0 0 1-2.03.62ZM1182.45 1221.5a3.5 3.5 0 0 1-2.92-5.42c.42-.65 43.4-65.34 114.69-102.51a3.5 3.5 0 1 1 3.24 6.21c-69.7 36.33-111.67 99.5-112.08 100.14a3.5 3.5 0 0 1-2.93 1.58Z" class="colorc76061 svgShape"></path><path fill="#f1be70" d="M2066.05 1838.1a3.51 3.51 0 0 1-3.5-3.44l-1-55.67a34.89 34.89 0 0 0-35.32-34.31l-202.08 2.32a3.5 3.5 0 1 1-.08-7l202.11-2.36a41.89 41.89 0 0 1 42.4 41.19l1 55.67a3.51 3.51 0 0 1-3.44 3.56ZM2066 1940.3a3.5 3.5 0 0 1-3.5-3.5v-79.75a3.5 3.5 0 0 1 7 0v79.75a3.5 3.5 0 0 1-3.5 3.5ZM1514.3 1991.23h-39.15a35.85 35.85 0 0 1-35.83-35.54l-.53-66.63a3.5 3.5 0 0 1 3.47-3.53 3.5 3.5 0 0 1 3.5 3.47l.53 66.63a28.83 28.83 0 0 0 28.83 28.6h39.15a3.5 3.5 0 0 1 0 7ZM1724.37 1991.23h-173.06a3.5 3.5 0 0 1 0-7h173.06a3.5 3.5 0 0 1 0 7Z" class="colorf18c70 svgShape"></path><path fill="#c79e60" d="M885 2014.63a3.5 3.5 0 0 1-3.5-3.5v-234.79a3.5 3.5 0 1 1 7 0v234.79a3.5 3.5 0 0 1-3.5 3.5ZM885 1747h-.13a3.5 3.5 0 0 1-3.37-3.62l2.37-63a3.5 3.5 0 1 1 7 .26l-2.37 63a3.5 3.5 0 0 1-3.5 3.36ZM2204.83 1584.94a3.5 3.5 0 0 1-3.5-3.5v-63.66a38.65 38.65 0 0 0-38.68-38.68h-78.2a3.5 3.5 0 0 1 0-7h78.2a45.67 45.67 0 0 1 45.68 45.68v63.66a3.5 3.5 0 0 1-3.5 3.5Z" class="colorc76061 svgShape"></path><path fill="#f1be70" d="M1683.31 1564.57h-274.1a3.5 3.5 0 0 1 0-7h274.1a3.5 3.5 0 0 1 0 7ZM1858.33 1564.57h-131a3.5 3.5 0 0 1 0-7h131a3.5 3.5 0 0 1 0 7ZM2041.16 1654.11h-155.45a3.5 3.5 0 0 1 0-7h155.45a1.47 1.47 0 0 0 1-.39 1.43 1.43 0 0 0 .45-1v-26.74a3.5 3.5 0 0 1 7 0v26.74a8.45 8.45 0 0 1-8.45 8.44Z" class="colorf18c70 svgShape"></path><path fill="#8526fe" d="m2097.11 2097.13-14 54.46a7.86 7.86 0 0 1-10.7 5.27l-1.55-.66a7.86 7.86 0 0 1-4.47-9.42l15.59-53.8a7.87 7.87 0 0 1 8.83-5.57 7.86 7.86 0 0 1 6.3 9.72Z" class="color2c4fa0 svgShape"></path><path fill="#5fe4d4" d="m2089.7 2065.44-5.82 20.84a3.45 3.45 0 0 1-3.32 2.52h-76.91a3.46 3.46 0 0 1-3.32-4.41l3.5-12.22 13.46-46.93a3.46 3.46 0 0 1 5.07-2l58.24 33.94 7.52 4.38a3.47 3.47 0 0 1 1.58 3.88Z" class="color92b1dd svgShape"></path><path fill="#ffffff" d="m1962.1 2072.83 17.61-2.48c2.58-.36 1.48-4.29-1.08-3.92l-17.61 2.48c-2.59.36-1.49 4.28 1.08 3.92ZM1963.29 2045.89l21.57 8c2.46.92 3.52-3 1.08-3.92l-21.57-8c-2.45-.92-3.51 3-1.08 3.92ZM1972.33 2023.74a43.12 43.12 0 0 0 9.86 6.29c2.37 1.08 4.44-2.43 2-3.51a39.13 39.13 0 0 1-9-5.65c-2-1.68-4.89 1.18-2.88 2.87ZM1988.75 2008.24q6.48 6.88 12.39 14.26c1.64 2 4.5-.85 2.88-2.88q-5.91-7.38-12.39-14.26c-1.8-1.91-4.68 1-2.88 2.88Z" class="colorffffff svgShape"></path><path fill="#73bdb4" d="m2089.7 2065.44-5.82 20.84a3.45 3.45 0 0 1-3.32 2.52h-76.91a3.46 3.46 0 0 1-3.32-4.41l3.5-12.22c19.32 3.43 55.12 8 66.57-2.54a60.08 60.08 0 0 0 10.2-12.48l7.52 4.38a3.47 3.47 0 0 1 1.58 3.91Z" class="color7394bd svgShape"></path><path fill="#a674bd" d="m2081 2088.1 7.72-24.2a3.61 3.61 0 0 1 4.69-2.29l14.05 5.16a3.61 3.61 0 0 1 2.16 4.6l-9 25.36a3.62 3.62 0 0 1-5 2l-12.81-6.32a3.64 3.64 0 0 1-1.81-4.31Z" class="color7494bd svgShape"></path><path fill="#6cc5ba" d="M2257.14 2290.94c-1.28 11.53-25.18 14.93-45.53 14.93s-58.33-16.28-61.73-19.68c-2-2-.15-4.34 2.73-8.71a55.12 55.12 0 0 0 6.09-11.88c4.75-13.15-12.21-40.54-12.21-40.54l-.51.49v-.55l-14.92-50.25 34.42-36.43s6.43-4.07 6.43-7.46 18.65-7.46 22.76-7.46 1.32 2.37 4.37 5.65 9.16-.23 14.25 1.81 19.33 17.63 36.33 62.58a157 157 0 0 1 5.1 16c10.03 38.42 3.55 71.37 2.42 81.5Z" class="color6cc58d svgShape"></path><path fill="#3e9a8f" d="M2146.49 2225.07s32.56-44 32.56-38.59-22.14 60.48-22.14 60.48ZM2257.14 2290.94c-1.28 11.53-25.18 14.92-45.53 14.92s-58.34-16.28-61.73-19.67c-2.05-2.05-.15-4.34 2.73-8.71 13.65 1.59 27 2.39 29.83-.11 6.1-5.43 27.36-80.57 27.36-80.57a114.45 114.45 0 0 1 44.93 12.68c10.02 38.38 3.54 71.33 2.41 81.46Z" class="color3e9a83 svgShape"></path><path fill="#ffdca8" d="M2098.56 2148.49s1.58-31.2 0-33.58-22.27-11.19-23.29-6.78a16.58 16.58 0 0 0 0 7.8s-3.05.68-3.05 4.75a11.4 11.4 0 0 0 2.71 7s-5.43 1.8-4.41 4.85a6.83 6.83 0 0 0 5.48 4.47l1.7.34 9.16 18.31Z" class="colorffb2a8 svgShape"></path><path fill="#6cc5ba" d="M2146 2225v.55c-2.83 2.71-16.71 15.88-18.93 15.88-2.49 0-21.94-5.43-29.4-10.86s-17.63-70.54-17.63-78 14.92-12.2 16.95-14.24 22.39 48.84 22.39 48.84L2159 2146l5.75 7a35.66 35.66 0 0 1 1.57 43.21Z" class="color6cc58d svgShape"></path><path fill="#3e9a8f" d="M2119.36 2187.16s-5.43 15.6-5.43 13.23.94-24.25.94-24.25Z" class="color3e9a83 svgShape"></path><path fill="#482757" d="M1929 2422.08s-11.71 25.32-18.29 24-53.61-32.56-51.8-38 6.78-7.24 17.18-2.26 40.25 9.95 40.25 9.95Z" class="color273657 svgShape"></path><path fill="#8526fe" d="M2152.26 2366.47s-74.28.45-91.23-5.66-23.29-4.07-24.87-2.71-48.84 37.76-72.81 50.43-29.85 18.08-33.47 18.08-21.25-6.78-19-12.21a65.47 65.47 0 0 1 5.18-7.77c12-16.59 40.5-52.6 40.5-52.6s51.1-75.29 82.31-58.57c8.45 4.53 20.65 11.82 33.93 20 35.76 22.15 79.46 51.01 79.46 51.01Z" class="color2c4fa0 svgShape"></path><path fill="#482757" d="M2152.26 2366.47s-74.28.45-91.23-5.66-23.29-4.07-24.87-2.71-48.84 37.76-72.81 50.43-29.85 18.08-33.47 18.08-21.25-6.78-19-12.21a65.47 65.47 0 0 1 5.18-7.77c9.92 3.5 17.49 5.73 20.15 5.51 10.85-.9 90.14-65.12 95.26-66s53.36 9 53.36 9l-30-36.81a173.55 173.55 0 0 1 17.93-2.85c35.8 22.13 79.5 50.99 79.5 50.99ZM1958.82 2357.42s-12.66 8.42-17.64 2.4-13.57-30.44-12.21-31.34 3.62-2.26 8.14 2.71 16.72 16.73 16.72 16.73Z" class="color273657 svgShape"></path><path fill="#8526fe" d="M2248.24 2295s-6.78 70.1-65.8 74.17-132.5-55.85-146.29-63.31-18.55-5.43-24.65-4.07-54.94 52.23-54.94 52.23l-2.73-3.91-2-2.88s36-56.3 43.41-70.55 6.78-25.63 17.64-25.37 137 34.87 137 34.87l66.27 5.94Z" class="color2c4fa0 svgShape"></path><path fill="#482757" d="M2248.24 2295s-6.78 70.1-65.8 74.17-132.5-55.85-146.29-63.31-18.55-5.43-24.65-4.07-54.94 52.23-54.94 52.23l-2.73-3.91c18-19.21 57.36-61.77 56.31-66-1.36-5.43 12.21 3.39 35.27 21.71s91.57 40.7 120.08 36.63c20-2.86 40.32-32.76 50.66-50.36ZM2224.16 2054.89s10.51 20.35 5.09 36.29-30.74 24.69-30.74 24.69-11.32-6.72-9.29-35.54 20.36-44.78 34.94-25.44Z" class="color273657 svgShape"></path><path fill="#ffdca8" d="M2162.77 2060.31s-17.32 26.79-13.75 52.57 26 15.32 26 15.32l22.38-2.37s1.64-17.36 3-21.09 3-5.43 7.12-7.12 8.14-4.07 7.8-12.21-10.51-8.48-10.51-7.8-2.37 9.5-4.75 9.16-4.07 3.05-3.39-2 .68-24.42.68-24.42h-34.6Z" class="colorffb2a8 svgShape"></path><path fill="#ffffff" d="M2152.6 2102a13.68 13.68 0 0 0 10-2.2c5.26-3.39 6.58-4.24 7.53-1.19s2.65 9.84-4.64 13.57-9.84 1.53-11.19 0-3.4-11.18-1.7-10.18Z" class="colorffffff svgShape"></path><path fill="#5fe4d4" d="M2153.28 2060.31s-12.21-1.36-13.57-5.09 10.51-19 34.93-20.35 31.92-1 40.72 3.39 18.29 16.28 16.6 22-78.68.05-78.68.05Z" class="color92b1dd svgShape"></path><path fill="#9b7b4b" d="m2231.25 2462.32-41.63-45.77 36.32-45.68a2.71 2.71 0 0 0-4.24-3.38l-35.78 45-27.3-30 10.05-9.37a2.72 2.72 0 1 0-3.71-4l-10 9.33-10.09-11.09a2.71 2.71 0 0 0-4 3.65l10.13 11.14-53.83 50.2-50.3-62.93a2.71 2.71 0 0 0-4.24 3.38l50.56 63.26-70.19 65.45a2.71 2.71 0 1 0 3.7 4l69.89-65.17 51.86 64.88a2.71 2.71 0 0 0 4.24-3.38l-51-63.76 77.46-17.08-33 41.5a2.71 2.71 0 0 0 4.24 3.38l35.78-45 41 45.12a2.71 2.71 0 0 0 2 .89 2.66 2.66 0 0 0 1.82-.71 2.72 2.72 0 0 0 .26-3.86ZM2180.9 2415l-74.9 16.54 48.66-45.37Z" class="color9b4b4c svgShape"></path><path fill="#f4bf70" d="m2227.86 2371.11-1.29-3.86c28.5-9.5 56.95-106.74 57.23-107.72l3.91 1.13c-1.19 4.09-29.35 100.28-59.85 110.45ZM2166.82 2371.1l-1.32-3.85c25.63-8.76 37.19-100.73 37.3-101.65l4 .5c-.43 3.9-11.96 95.43-39.98 105Z" class="colorf48a70 svgShape"></path><path fill="#fcce89" d="m2194.83 2261.89 15-65.08a5.55 5.55 0 0 1 6-4.28 209.53 209.53 0 0 0 93.2-10.94 5.55 5.55 0 0 1 7 7.33l-27.67 68.33a5.49 5.49 0 0 1-2.56 2.83c-4.52 2.35-17.36 7.93-38.19 8.47-18.44.47-37.53.29-47.41.13a5.55 5.55 0 0 1-5.37-6.79Z" class="colorfccd89 svgShape"></path><path fill="#d8a353" d="M2233 2373.25h-193.85a3 3 0 0 1-3-3v-2.14a3 3 0 0 1 3-3H2233a3 3 0 0 1 3 3v2.14a3 3 0 0 1-3 3Z" class="colorec8a6d svgShape"></path><path fill="#482757" d="M2496.51 1936.86s9 48.84 1.81 77.78-11.71 32.11-8.34 36.63 17.39 18.54 26.43 38.89 13.11 38 10.85 38.89-10 5-10 5-50.45-67.54-51.1-74.62-9.47-86.83-9.47-86.83 15.4-37.55 39.82-35.74Z" class="color273657 svgShape"></path><path fill="#482757" d="M2527.26 2129.05s3.49 19.48.61 21.67-30 2.9-32.38 0 3.05-5.95 6.78-7.65 17.3-10.17 17.3-10.17Z" class="color273657 svgShape"></path><path fill="#8526fe" d="M2423.5 1947.76s8.79 112.1 8.79 118 38 79.14 39.79 79.14 11.31 4.07 12.21-2.26-7.69-39.34-12.21-54.72-10.08-20.65-10.47-25 23.13-47.33 26.75-68.59 0-54.27 0-54.27-65.53-.84-64.86 7.7Z" class="color2c4fa0 svgShape"></path><path fill="#482757" d="M2484.32 2140.32s5.06 17 2.35 18.35-45.11 4.75-46.47 0 31.88-13.79 31.88-13.79Z" class="color273657 svgShape"></path><path fill="#f2c37c" d="m2312 1778.05-17-31.12-9.7 3.27a11.35 11.35 0 0 0-7.13 7.15 29.58 29.58 0 0 0 11.9 34.12l4.93 3.22 10.17-3Z" class="colorf27c85 svgShape"></path><path fill="#3e9a8f" d="M2426 1822.9s-56.55-1.81-63.78-5.88-49.73-50.38-52.44-50.06-11.43 25.64-10 30.16 47.09 51.1 55.23 54.27 82.76 14 86.37-6.78-15.38-21.71-15.38-21.71Z" class="color3e9a83 svgShape"></path><path fill="#482757" d="M2383.23 1733.36s-20.35-19.67-21-35.95 25.32 0 25.32 0 0-10.63 7.24-10.63 11.76 14.47 11.76 14.47 5.56-15.83 16.57-10 10.56 16.28 10.56 16.28 8.14-17.18 23.52 0 4.46 42.06 4.46 42.06 13.18-8.59 10 12.66-17.86 14.92-22.61 22.16-3.84 10.22-3.84 10.22Z" class="color273657 svgShape"></path><path fill="#ffdca8" d="M2383.23 1733.36s-7.46 44.09 6.44 63.76 31.9 13.57 31.9 13.57 2.16 1.79 1.51 6.44l-.65 4.65s5.22 22.59 20.48 7.78 8.82-32.45 8.82-32.45-6.44 2-7.46-5.43-1.7-17.3-1.7-17.3 8.14 3.44 7.46-7.44-6.44-12.91-8.82-11.22-2.15 11.58-4 11.22-3.5.66-4.52-2.4-.68-20.69-.68-20.69-9.12 0-10.49-5.09 11.17-5.43 11.17-5.43-21-1-21-6.44v-5.43s-6.1 11.19-9.84 8.48a5.18 5.18 0 0 1-1.93-6.44s-9.23 15.29-16.69 9.86Z" class="colorffb2a8 svgShape"></path><path fill="#ffffff" d="M2394.08 1789.66s5.43 8.37 8.59 9 9.95-2.94 9.72-11.53-.9-9.5-3.62-7.46-3.62 6.78-7.69 8.14-9.03-1.03-7 1.85Z" class="colorffffff svgShape"></path><path fill="#ffdca8" d="M2316.51 1814.8s-12-15.15-14.92-20.35-1.58-17.18-3.17-21.25-5.2-5.43-5.88-2.26-1.36 14.7-1.36 14.7-.45-13-2.94-16.45-5.88-2.77-5.88 1.3v18.77c0 .68-5-16-7.46-12.89s-2 7.69-1.13 12 9.95 19 8.82 22.16-8.37 7.46-6.33 10.63 3.62 4.07 6.78 1.81 1.77-1.36 11.74-1.13 14.72 2 17.88 5 5.44-7.75 3.85-12.04Z" class="colorffb2a8 svgShape"></path><path fill="#6cc5ba" d="M2424.85 1876.42c.06-1.05.09-1.63.09-1.63s-53.92 1-66.81-4.41-57.66-39.34-58.34-41.71 4.41-24.42 7.8-26.46 44.77 32.56 50.54 34.94c5.42 2.23 57.44-4.55 63.52-5.35l.35.2a135.25 135.25 0 0 1 2.85 44.42Z" class="color6cc58d svgShape"></path><path fill="#6cc5ba" d="M2500.16 1941.78v1.41c-.46 8.14-71 12.21-75.19 10.86-3.82-1.24-.66-66.44-.09-77.63A135.25 135.25 0 0 0 2422 1832l-.35-.2.58-.08-1.7-11.09s3.17 2.27 5.43 2.27 7.69-10.41 7.69-10.85 15.82-14.93 18.09-14.93 25.77 23.07 35.72 46.58c9.54 22.49 12.83 85.48 12.7 98.08Z" class="color6cc58d svgShape"></path><path fill="#3e9a8f" d="M2500.16 1941.78v1.41c-.46 8.14-71 12.21-75.19 10.85s0-79.26 0-79.26l19.1-3s-12.66 14.92-12.66 38.89 6.78 32.56 14.92 35c5.67 1.73 35.84-1.67 53.83-3.89ZM2422.23 1831.72l15.04-4.3h-15.7l.66 4.3z" class="color3e9a83 svgShape"></path><path fill="#afd2ce" d="M1162.94 1192.2v-53.84l-42.47-4.7a138.87 138.87 0 0 0-18-40.47l27.51-34.37-38.07-38.07-35.43 28.37a138.21 138.21 0 0 0-39-15.71l-5.05-45.6h-53.86l-5.05 45.6a138.33 138.33 0 0 0-39 15.71L879 1020.75l-38 38.07 27.51 34.37a138.87 138.87 0 0 0-18 40.47l-42.47 4.7v53.84l40.58 4.5a138.59 138.59 0 0 0 17 44.16L841 1271.73l38 38.07 29.83-23.87a139.2 139.2 0 0 0 45.56 19.41l4.15 37.4h53.84l4.15-37.4a139.29 139.29 0 0 0 45.56-19.41l29.91 23.87 38.07-38.07-24.7-30.87a139.06 139.06 0 0 0 17.05-44.16Zm-258.54-22.93a81.09 81.09 0 1 1 81.09 81.09 81.08 81.08 0 0 1-81.09-81.09Z" class="colorafc5d2 svgShape"></path><path fill="#ad59d4" d="M985.63 1067.82a101.46 101.46 0 1 0 101.46 101.46 101.45 101.45 0 0 0-101.46-101.46Zm-.14 182.54a81.09 81.09 0 1 1 81.09-81.09 81.08 81.08 0 0 1-81.09 81.09Z" class="color768eba svgShape"></path><path fill="#ceeeea" d="m798.53 1252.2-6.95-30.53-24.69 2.82a80.78 80.78 0 0 0-15.41-20.63l11.16-23-26.5-16.67-16.43 20.66a80.43 80.43 0 0 0-24.17-3.87l-8.75-25.2-30.53 7 3 26.51a80.72 80.72 0 0 0-20.12 14l-23.75-11.52-16.67 26.5 20 15.94a81 81 0 0 0-5 25.27l-23.48 8.15 6.95 30.53 23.59-2.69a80.38 80.38 0 0 0 15.37 22.84l-10 20.69 26.5 16.67 13.83-17.39a80.85 80.85 0 0 0 28.34 5.12l7.18 20.67 30.53-7-2.47-21.74a81 81 0 0 0 23.33-16.89l20 9.69 16.67-26.5-18-14.32a80.84 80.84 0 0 0 4-27.24ZM649 1272.57a47.16 47.16 0 1 1 56.45 35.51 47.16 47.16 0 0 1-56.45-35.51Z" class="colorcedbee svgShape"></path><path fill="#afd2ce" d="M681.93 1204.55a59 59 0 1 0 70.63 44.45 59 59 0 0 0-70.63-44.45Zm23.48 103.53a47.16 47.16 0 1 1 35.51-56.45 47.16 47.16 0 0 1-35.51 56.45Z" class="colorafc5d2 svgShape"></path><path fill="#ceeeea" d="m1179.58 913.5 2.87-31.18-24.35-5a80.62 80.62 0 0 0-8.25-24.39l17.76-18.44-20-24.07-22 14.54a80.73 80.73 0 0 0-21.78-11.18l-.5-26.67-31.18-2.87-5.35 26.14a80.61 80.61 0 0 0-23.45 7l-19-18.32-24.07 20 14.1 21.37a80.49 80.49 0 0 0-12.62 22.57l-24.85.46-2.91 31.15 23.26 4.77a80.58 80.58 0 0 0 7.52 26.48l-16 16.56 20 24.07 18.54-12.24a81.09 81.09 0 0 0 25.35 13.66l.41 21.88 31.18 2.87 4.39-21.44a81.22 81.22 0 0 0 27.42-8.81l16 15.41 24.07-20-12.66-19.19a80.63 80.63 0 0 0 12.22-24.67Zm-148.5-27a47.16 47.16 0 1 1 42.64 51.28 47.15 47.15 0 0 1-42.64-51.32Z" class="colorcedbee svgShape"></path><path fill="#afd2ce" d="M1083.52 832a59 59 0 1 0 53.35 64.16 59 59 0 0 0-53.35-64.16Zm-9.8 105.7a47.16 47.16 0 1 1 51.28-42.61 47.15 47.15 0 0 1-51.28 42.64Z" class="colorafc5d2 svgShape"></path><path fill="#ceeeea" d="M1662.58 827.14a17.77 17.77 0 0 0-19.65 22.63c20.27 68.31 72.93 243.74 78 240.09s148.73-136.93 209.87-193.7a17.77 17.77 0 0 0-9.49-30.6Z" class="colorcedbee svgShape"></path><path fill="#afd2ce" d="M1930.83 896.15c-61.13 56.78-204.89 190.15-209.87 193.72-3.92 2.79-36-100.27-59.76-179.12a377.91 377.91 0 0 0 100 13c69.34 0 131.65-17.58 174.61-45.52a17.53 17.53 0 0 1-4.98 17.92Z" class="colorafc5d2 svgShape"></path><path fill="#ceeeea" d="m2067.24 937.23-24.65 9.61a6.66 6.66 0 0 1-8.63-3.79l-64.14-164.54a6.66 6.66 0 0 1 3.79-8.63l24.65-9.61a6.66 6.66 0 0 1 8.63 3.79L2071 928.6a6.67 6.67 0 0 1-3.76 8.63ZM2162.4 900.13l-24.65 9.61a6.66 6.66 0 0 1-8.63-3.79L2065 741.41a6.66 6.66 0 0 1 3.79-8.63l24.65-9.61a6.66 6.66 0 0 1 8.63 3.79l64.14 164.54a6.66 6.66 0 0 1-3.81 8.63Z" class="colorcedbee svgShape"></path><path fill="#ad59d4" d="M1654.48 892a3.5 3.5 0 0 1-3.34-2.46L1639 850.66a20.49 20.49 0 0 1 22.41-26.41l109 15.34a3.5 3.5 0 1 1-1 6.93l-109-15.34a13.48 13.48 0 0 0-14.75 17.39l12.16 38.84a3.5 3.5 0 0 1-3.34 4.55ZM1895.19 865.17a3 3 0 0 1-.52 0l-96.32-14.3a3.5 3.5 0 1 1 1-6.92l96.32 14.3a3.5 3.5 0 0 1-.51 7ZM1680.57 977.65a3.51 3.51 0 0 1-3.35-2.48l-19.38-63.4a3.5 3.5 0 0 1 6.7-2l19.38 63.4a3.5 3.5 0 0 1-2.33 4.37 3.29 3.29 0 0 1-1.02.11Z" class="color768eba svgShape"></path><path fill="#afd2ce" d="m855.89 1019.1-285.61-60.57a8 8 0 0 1-6.17-9.49l48.75-229.87a8 8 0 0 1 9.49-6.17L908 773.57a8 8 0 0 1 6.17 9.49l-48.75 229.87a8 8 0 0 1-9.53 6.17Z" class="colorafc5d2 svgShape"></path><path fill="#dff3f1" d="m818.28 980.61-198-42a8 8 0 0 1-6.17-9.49l36.36-171.47a8 8 0 0 1 9.49-6.17l198 42a8 8 0 0 1 6.17 9.49l-36.36 171.47a8 8 0 0 1-9.49 6.17Z" class="colordfe9f3 svgShape"></path><path fill="#ceeeea" d="m846.78 884.81-18.42 86.85a10.85 10.85 0 0 1-12.87 8.34l-192.43-40.78a10.85 10.85 0 0 1-8.37-12.87l15.68-73.93c22.13 26 54.39 45.8 92.58 53.9 45.71 9.68 90.41.62 123.83-21.51Z" class="colorcedbee svgShape"></path><path fill="#73bdb4" d="m639 752.69-4.28 20.18a5.37 5.37 0 0 1-6.23 4.31l-5.72-1.18a5.37 5.37 0 0 1-3.94-6.47l4.28-20.18a5.37 5.37 0 0 1 6.23-4.31l5.76 1.22a5.37 5.37 0 0 1 3.9 6.43ZM628 804.75l-4.28 20.18a5.37 5.37 0 0 1-6.23 4.31l-5.76-1.24a5.37 5.37 0 0 1-3.94-6.47l4.28-20.18a5.37 5.37 0 0 1 6.23-4.31l5.76 1.22a5.37 5.37 0 0 1 3.94 6.49ZM617 856.81 612.68 877a5.37 5.37 0 0 1-6.23 4.31l-5.76-1.22a5.37 5.37 0 0 1-3.94-6.47l4.25-20.19a5.37 5.37 0 0 1 6.23-4.31l5.76 1.22a5.37 5.37 0 0 1 4.01 6.47ZM605.92 908.86 601.64 929a5.37 5.37 0 0 1-6.23 4.31l-5.76-1.22a5.37 5.37 0 0 1-3.94-6.47l4.29-20.14a5.37 5.37 0 0 1 6.23-4.31l5.76 1.22a5.37 5.37 0 0 1 3.93 6.47ZM892.52 806.45l-4.28 20.18a5.37 5.37 0 0 1-6.23 4.31l-5.76-1.22a5.37 5.37 0 0 1-3.94-6.47l4.28-20.18a5.37 5.37 0 0 1 6.23-4.31l5.76 1.22a5.37 5.37 0 0 1 3.94 6.47ZM881.48 858.5l-4.28 20.18A5.37 5.37 0 0 1 871 883l-5.76-1.22a5.37 5.37 0 0 1-3.94-6.47l4.28-20.18a5.37 5.37 0 0 1 6.23-4.31l5.76 1.22a5.38 5.38 0 0 1 3.91 6.46ZM870.44 910.56l-4.28 20.18a5.37 5.37 0 0 1-6.23 4.31l-5.76-1.22a5.37 5.37 0 0 1-3.94-6.47l4.28-20.18a5.37 5.37 0 0 1 6.23-4.31l5.76 1.22a5.37 5.37 0 0 1 3.94 6.47ZM859.4 962.62l-4.28 20.18a5.37 5.37 0 0 1-6.23 4.31l-5.76-1.22a5.37 5.37 0 0 1-3.94-6.47l4.28-20.18a5.37 5.37 0 0 1 6.23-4.31l5.76 1.22a5.37 5.37 0 0 1 3.94 6.47ZM680.76 955.91a3.71 3.71 0 0 1-.73-.08l-55-11.52a17.75 17.75 0 0 1-13.7-21.17L627 851.66a3.5 3.5 0 1 1 6.84 1.5l-15.64 71.48a10.73 10.73 0 0 0 8.3 12.82l55 11.52a3.5 3.5 0 0 1-.71 6.93ZM635.28 832.84a3.42 3.42 0 0 1-.71-.07 3.51 3.51 0 0 1-2.73-4.13l5.08-24.8a3.5 3.5 0 1 1 6.86 1.4L638.7 830a3.5 3.5 0 0 1-3.42 2.84Z" class="color7394bd svgShape"></path><path fill="#afd2ce" d="m659.34 2046.89 3.24-4.35-79.8-59.54v-289.4h-6.44v289.46l-77.46 59.51 3.31 4.3 35.48-27.25h85.1Zm-114.6-32.71 31.61-24.28v1.22h6.44v-1.33l32.7 24.39ZM535.48 1607.19h95.64v86.4h-95.64z" class="colorafc5d2 svgShape"></path><circle cx="583.3" cy="1650.4" r="34.59" fill="#ad59d4" class="color768eba svgShape"></circle><circle cx="583.3" cy="1650.4" r="26.86" fill="#ffffff" class="colorffffff svgShape"></circle><path fill="#ceeeea" d="M610.16 1650.39a26.86 26.86 0 1 1-51.16-11.52 26.88 26.88 0 0 0 48.54 0 26.94 26.94 0 0 1 2.62 11.52ZM685 1557.27l-53.85 49.92h-95.67l-53.85-49.92a6 6 0 0 1 4.1-10.45h195.14a6 6 0 0 1 4.13 10.45ZM481.63 1743.52l53.85-49.92h95.64l53.88 49.92a6 6 0 0 1-4.1 10.45H485.73a6 6 0 0 1-4.1-10.45ZM707.77 1591.84v118a5.44 5.44 0 0 1-7 5.2l-69.61-21.49v-85.45l69.61-21.49a5.43 5.43 0 0 1 7 5.23ZM458.83 1591.84v118a5.44 5.44 0 0 0 7 5.2l69.61-21.49v-85.45l-69.61-21.49a5.43 5.43 0 0 0-7 5.23Z" class="colorcedbee svgShape"></path><path fill="#ad59d4" d="M516.46 1714.72a3.5 3.5 0 0 1-2.38-6.07l7.76-7.2-21.92 6.77a3.5 3.5 0 0 1-2.06-6.69l35.14-10.84a3.81 3.81 0 0 1 4.48 1.77 3.85 3.85 0 0 1-.73 4.74l-17.86 16.58a3.47 3.47 0 0 1-2.43.94Zm18.64-17.36h-.16ZM481.63 1747a3.5 3.5 0 0 1-2.38-6.07l19.55-18.12a3.5 3.5 0 1 1 4.76 5.13L484 1746.08a3.47 3.47 0 0 1-2.37.92ZM656.87 1721a3.47 3.47 0 0 1-2.38-.94l-26.87-24.92v-59.57a3.5 3.5 0 0 1 7 0v56.51l24.63 22.85a3.5 3.5 0 0 1-2.38 6.07ZM679.49 1741.94a3.49 3.49 0 0 1-2.38-.94L663 1728a3.5 3.5 0 1 1 4.76-5.13l14.07 13a3.5 3.5 0 0 1-2.38 6.07Z" class="color768eba svgShape"></path><path fill="#ad59d4" d="M631.12 1697.08h-21a3.5 3.5 0 1 1 0-7h21a3.5 3.5 0 0 1 0 7Z" class="color768eba svgShape"></path><path fill="#ceeeea" d="M1142.94 639.42 1084.6 637a6.09 6.09 0 0 0-5.47 9.22l33 55a6.09 6.09 0 0 0 10.71-.49l25.34-52.61a6.09 6.09 0 0 0-5.24-8.7ZM1569.85 687.06v-10.32l-8.14-.9a26.71 26.71 0 0 0-3.45-7.76l5.27-6.59-7.3-7.3-6.79 5.44a26.38 26.38 0 0 0-7.49-3l-1-8.74h-10.32l-1 8.74a26.79 26.79 0 0 0-7.49 3l-6.79-5.44-7.3 7.3 5.27 6.59a26.86 26.86 0 0 0-3.45 7.76l-8.14.9v10.32l7.78.86a26.69 26.69 0 0 0 3.27 8.47l-4.73 5.92 7.3 7.3 5.72-4.58a26.7 26.7 0 0 0 8.73 3.72l.8 7.17h10.4l.8-7.17a26.52 26.52 0 0 0 8.73-3.72l5.72 4.58 7.3-7.3-4.73-5.92a26.6 26.6 0 0 0 3.27-8.47Zm-49.57-4.4a15.55 15.55 0 1 1 15.55 15.55 15.55 15.55 0 0 1-15.55-15.55ZM1365.62 597.1a8.85 8.85 0 1 0-16.73-.63l-2.76.07a9.09 9.09 0 0 0 .25-2.29 8.84 8.84 0 1 0-16.86 4l.16 6.1-7.82.21v.21a3.15 3.15 0 0 0-6.29.17l.37 13.54a3.15 3.15 0 0 0 6.29-.17v.21l7.82-.21.2 7.33 18.84-.51.16 6 4.33-.12.3 11.17 5.3-.14-.3-11.17 3.21-.09-.16-6 4.42-.12ZM976.28 1461.46l-42.8 4a4.48 4.48 0 0 0-3.09 7.26l29.45 36.91a4.49 4.49 0 0 0 7.77-1.4l13.39-40.9a4.49 4.49 0 0 0-4.72-5.87ZM842.06 1446.74v-10.32l-8.14-.9a26.71 26.71 0 0 0-3.45-7.76l5.27-6.59-7.3-7.3-6.79 5.44a26.38 26.38 0 0 0-7.49-3l-1-8.74h-10.29l-1 8.74a26.79 26.79 0 0 0-7.49 3l-6.79-5.44-7.3 7.3 5.27 6.59a26.86 26.86 0 0 0-3.45 7.76l-8.14.9v10.32l7.78.86a26.69 26.69 0 0 0 3.27 8.47l-4.73 5.92 7.3 7.3 5.72-4.58a26.7 26.7 0 0 0 8.73 3.72l.8 7.17h10.32l.8-7.17a26.52 26.52 0 0 0 8.73-3.72l5.72 4.58 7.3-7.3-4.73-5.92a26.6 26.6 0 0 0 3.27-8.47Zm-49.57-4.4a15.55 15.55 0 1 1 15.51 15.55 15.55 15.55 0 0 1-15.51-15.55ZM633 1451.15v-20.51l-32.34 18.49h-9.38v24.71h9.38l32.34 18.41v-20.51c4 0 7.32-4.61 7.32-10.29s-3.32-10.3-7.32-10.3Z" class="colorcedbee svgShape"></path><path fill="#ceeeea" d="M640.88 1448.6a1.33 1.33 0 0 0-.21 1.86 17.67 17.67 0 0 1 0 22 1.33 1.33 0 0 0 1 2.15 1.3 1.3 0 0 0 1-.5 20.29 20.29 0 0 0 0-25.26 1.31 1.31 0 0 0-1.79-.25ZM652 1441a1.32 1.32 0 0 0-2.07 1.65 30.22 30.22 0 0 1 0 37.6 1.33 1.33 0 0 0 1 2.15 1.3 1.3 0 0 0 1-.5 32.87 32.87 0 0 0 0-40.9Z" class="colorcedbee svgShape"></path><path fill="#ceeeea" d="M661.38 1433.86a1.32 1.32 0 0 0-2.07 1.65 41.7 41.7 0 0 1 0 51.88 1.33 1.33 0 0 0 .21 1.86l1.86-.21a44.34 44.34 0 0 0 0-55.18ZM411.26 1860.19h15.07v62.7h-15.07zM443.76 1860.19h15.07v62.7h-15.07zM2338.4 956.48h15.07v62.7h-15.07zM2370.9 956.48h15.07v62.7h-15.07z" class="colorcedbee svgShape"></path><path fill="#6cc5ba" d="M1400 868.37s-36.32 2.25-48.35 10.68-8.37 134.93-8.37 134.93 47.65 24.46 105-5.48c0 0-2.16-111.61-10.12-125.65-4.6-8.01-38.16-14.48-38.16-14.48Z" class="color6cc58d svgShape"></path><path fill="#3b978c" d="M1357.19 889.17a185.77 185.77 0 0 1 7.12 49.48c.42 51.72 49.47 39.08 49.47 39.08l-2.25 23.75-29.09 9.13-29.09-17.43s-7.84-9-12.21-15.46-5.65-20.53-6.42-27.83 4.6-35.42 6.42-41 16.05-19.72 16.05-19.72Z" class="color3b9782 svgShape"></path><path fill="#482757" d="M1418.23 1205.22s-7 17.59-4.14 21.41 33.9 27.53 37.47 27 4.84-3.82 3.82-8.16-22.88-39.43-22.88-39.43ZM1489.54 1189.42s-6.37 20.65-2.55 25.75 25.24 25.24 29.06 24.47 4.08-3.31 4.33-4.84-19.63-41.29-19.63-41.29Z" class="color273657 svgShape"></path><path fill="#8526fe" d="M1500.76 1193.49a5 5 0 0 1-3 .89 46.13 46.13 0 0 1-9.22-.89s-8.16-102-8.16-104-26.51-5.1-26.51-5.1 0 8.16-4.08 33.65c-3.72 23.24-10 73.58-15.69 88.48a13.92 13.92 0 0 1-1.64 3.28c-6.12 8.16-9.18 1-15.29 0s4.08-72.39 4.08-77.49-5.1-36.71-7.14-40.78-12.24 15.29-31.61 26.51-32.63 14.27-47.92-16.31 8.16-66.28 8.16-66.28V999l33.09 7.07 80.1 17.12s41.8 4.08 48.61 8.47-1.74 159.8-3.78 161.83Z" class="color2c4fa0 svgShape"></path><path fill="#482757" d="M1497.74 1194.38a46.13 46.13 0 0 1-9.22-.89s-8.16-102-8.16-104-26.51-5.1-26.51-5.1-2.38-22.43-11.22-35.35-14.5-17.36-14.5-17.36h7.7s20.61 7.48 33.75 26.36 9.76 22.28 18.6 26.36c6.82 3.13 1.14 74.6 9.56 109.98ZM1434.08 1206.53a13.92 13.92 0 0 1-1.64 3.28c-6.12 8.16-9.18 1-15.29 0s4.08-72.39 4.08-77.49-5.1-36.71-7.14-40.78-12.24 15.29-31.61 26.51-32.63 14.27-47.92-16.31 8.16-66.28 8.16-66.28V999l33.09 7.07a81 81 0 0 1-7.66 25.58s-15.91 2.42-18 7.17 1.14 52.35 24 51 31-2.71 29-7.47-5.52-13.59.31-7.47 18.73 17 20.09 21.75 9.75 23.11 4.54 59.82-9.84 47.58 4.36 49.61a5 5 0 0 1 1.63.47ZM1353.53 767.53s-30.79-9.76-37.55 10.89c-6.19 18.92 15.67 66.71-9.22 91.39a3.94 3.94 0 0 0 2.94 6.7c19-.58 55-9.28 44.22-68.7l11.31-23.4Z" class="color273657 svgShape"></path><path fill="#f2c37c" d="m1414.2 856.11-6.52 27.75a13.28 13.28 0 0 1-26.21-2.7l-.71-27.5Z" class="colorf27c85 svgShape"></path><path fill="#ffdca8" d="M1363.36 784.93c12-22.78 56.32-26.34 68.55-3.16s12 81.63-22.44 89.87-67.63-45.9-46.11-86.71Z" class="colorffb2a8 svgShape"></path><path fill="#ffffff" d="M1395.51 842.13s14.48 4.5 25.37-.57c0 0 1.58 16.82-14.65 16-16.52-.8-10.72-15.43-10.72-15.43Z" class="colorffffff svgShape"></path><path fill="#482757" d="M1355.48 766.56c-3.6 0-11.26-.07-17.3 8-8.28 11-7.51 35.26 16 54.33l15.9-21.64c2.85 3.54 7.09 5.54 11 4.86 5.79-1 10.54-7.68 9.28-15.46.63.36 7.65 4.26 14.58.88 6.27-3.05 9.77-10.76 8-18.55 9 7.92 24.33 8.59 28.71-.44 17.63-36.54-86.42-49.54-86.17-11.98Z" class="color273657 svgShape"></path><path fill="#ffdca8" d="M1365.9 814.31s-3.35-8.34-15.58-5.58c-11.42 2.58-5.85 39.83 16.43 35.33l4.52-14.27Z" class="colorffb2a8 svgShape"></path><path fill="#f2c37c" d="M1359.27 817.3c-1.55-4-3.53-3.53-7.54-3-6.59.84-2.64 20.61 3.51 23.18s1.19-4.52 2.83-6.19 3.7.67 4-3.26-2.18-9.13-2.8-10.73Z" class="colorf27c85 svgShape"></path><path fill="#ffdca8" d="M1395.46 1006.52c-5.17-14.76-20.2-6.23-25.45-12.35l-4.37 18.37c7.87 7.87 34.99 8.74 29.82-6.02Z" class="colorffb2a8 svgShape"></path><path fill="#6cc5ba" d="m1369.73 1015.72 2.33-23.42c-7.85-10.51-19-28-17.76-41.58a133.08 133.08 0 0 1 4.92-23.22 56.37 56.37 0 0 0-7.58-48.43s-26.61 15.17-30.14 57.35c-3.59 43.24 24.35 73.24 48.23 79.3Z" class="color6cc58d svgShape"></path><path fill="#ffdca8" d="M1441.74 999.42c-28 2.62-20.12 19.24-9.62 21s18.37-11.37 20.12-15.74Z" class="colorffb2a8 svgShape"></path><path fill="#3b978c" d="M1447 962a1.09 1.09 0 0 1 0-.18c-1.64-51.67-6.23-71-9.46-78.24l.58-.71s24.35 17.71 35.42 64.55c5.35 22.72-12.43 19.9-26.54 14.58Z" class="color3b9782 svgShape"></path><path fill="#3b978c" d="M1474.5 956.18s6.61 34.49-23.14 52.86c-14-2.62-14.87-9.62-14.87-9.62 8.75-9.62 10.18-37.55 10.18-37.55Z" class="color3b9782 svgShape"></path><path fill="#c79e60" d="m1368.17 1031.7-33.45-27.59 157.6-2.63 29.24 30.22h-153.39z" class="colorc76061 svgShape"></path><path fill="#fcce89" d="M1368.14 1031.68h153.4l10.85-107.9h-153.41l-6.92 68.52-2.33 23.42-1.59 15.96z" class="colorfccd89 svgShape"></path><path fill="#c79e60" d="m1469.59 975.32-33.46-23.73-3.62 41.28 37.08-17.55z" class="colorc76061 svgShape"></path><path fill="#8526fe" d="M1145.29 2276.74c-4.75 18.34-31.2 111.2-34.59 116.63-1.48 2.37-3.35 2.28-5.28 1.19-2.47-1.38-5-4.41-6.93-5.94-3.39-2.71 2-95.64 3.39-107.17s-1.36-14.92-4.07-26.45-4.75-50.2-7.46-54.27-23.06 57-31.88 76c-8.34 18-57.44 106.47-64.36 115.83-.39.53-.65.8-.76.8-2 0-4.75-2.71-6.78-4.07s8.14-65.12 13.51-96.1 17.69-42.27 20-47 3.76-28.49.37-61.73 17.64-75.29 17.64-75.29l99.66-8.82s.34 4.4.88 11.83c2.77 37.02 10.62 149.27 6.66 164.56Z" class="color2c4fa0 svgShape"></path><path fill="#482757" d="M1138.65 2112.16c-10 6.4-22.71 11.82-37.46 12.59-38.66 2-45.45 4.75-46.8 8.14s-19 67.15-17.64 84.11 7.31 24.31-.07 30.81c-7 6.13-43.59 109.68-42.59 144.75-.39.53-.65.8-.76.8-2 0-4.75-2.71-6.78-4.07s8.14-65.12 13.51-96.1 17.69-42.27 20-47 3.76-28.49.37-61.73 17.64-75.29 17.64-75.29l99.66-8.82s.38 4.38.92 11.81Z" class="color273657 svgShape"></path><path fill="#482757" d="M1114.76 2273.31c5.43 16.28-3.39 23.06-3.39 33.24 0 7.3-11.18 54.77-6 88-2.47-1.38-5-4.41-6.93-5.94-3.39-2.71 2-95.64 3.39-107.17s-1.36-14.92-4.07-26.45-4.75-50.2-7.46-54.27v-17.62l30.52-4.75s-15.95 17.64-17.81 22.38 6.33 56.27 11.75 72.58Z" class="color273657 svgShape"></path><path fill="#482757" d="M1100.07 2384.1s-8.59 33.92-3.17 35.73 52.46 1.81 55.17-1.81-41.38-24.65-41.38-24.65ZM994.1 2392.57s4.83 20.47 0 24.09-45.08 8.26-47.34 4.35 39.79-31.71 39.79-31.71ZM1042.52 1920.52s-5.09-22.65 5.09-45.72 30.64-16.63 30.64-16.63 18.88-6.44 30.41 1.7 21.77 37.65 12.92 52.57-16 15.6-32.59 14.58-45.35 2.53-46.47-6.5Z" class="color273657 svgShape"></path><path fill="#fcce89" d="M1044.65 1910.17s-3.82-48.38 41.4-48.38 39.79 54.48 39.79 54.48h-2.26s-4.8-48.15-38.28-48.15-37.7 43.86-37.7 43.86Z" class="colorfccd89 svgShape"></path><path fill="#8526fe" d="M1123.89 1930.08h-4.62a6.48 6.48 0 0 1-6.48-6.48V1909a6.48 6.48 0 0 1 6.48-6.48h4.62a6.48 6.48 0 0 1 6.48 6.48v14.64a6.48 6.48 0 0 1-6.48 6.44Z" class="color2c4fa0 svgShape"></path><path fill="#f2c37c" d="M1069.66 1943s2 23.74-6.1 27.13.77 30.91 18 32.76a87.87 87.87 0 0 0 32.22-2.91s9.84-35.27 7.46-36-14.58-3.85-16.28-12.44-35.3-8.54-35.3-8.54Z" class="colorf27c85 svgShape"></path><path fill="#ffdca8" d="M1057.79 1896.84s8.71 9.45 20.46 10.15 6-7.1 6-7.1 9.78 5.43 18.77 5.43 11-8.48 11-8.48 6.44 35.27 0 50.2a35.27 35.27 0 0 1-23.4 20.35c-4.07 1-10.47-1-14.56-3.22s-20.59-15.77-22.69-23.23-4.32-50.69 4.42-44.1Z" class="colorffb2a8 svgShape"></path><path fill="#8526fe" d="M1047 1934.6h-4.62a6.48 6.48 0 0 1-6.48-6.48v-14.64a6.48 6.48 0 0 1 6.48-6.48h4.62a6.48 6.48 0 0 1 6.48 6.48v14.64a6.48 6.48 0 0 1-6.48 6.48Z" class="color2c4fa0 svgShape"></path><path fill="#6cc5ba" d="M1137.77 2105.38a2.89 2.89 0 0 1-.62 1.06c-5.88 5.43-46.57 14.47-57 14.92S1035 2120 1035 2111c0-8.3 9.16-60.47 6.8-71.39l10.19-75.68a131.5 131.5 0 0 1 16-1.7s14.48 18.53 28.94 19 12.67-25.88 12.67-25.88 11.18-1.47 25-3.66a414.28 414.28 0 0 0 4.88 41.21l-.46.08s3.7 99.95-1.25 112.4Z" class="color6cc58d svgShape"></path><path fill="#3e9a8f" d="M1137.77 2105.38a3.14 3.14 0 0 1-.62 1.06c-5.87 5.43-46.57 14.48-57 14.92S1035 2120 1035 2111s10.85-70.08 5.87-73.26c-1.44-.91-5.28-1.14-10-1 0 0 55.92-30.86 61.13-18.19 0 0-36.18 52.68-36.63 60.82s-1.86 27.13-1.86 27.13 48.19 3.85 84.26-1.12Z" class="color3e9a83 svgShape"></path><path fill="#482757" d="M952.06 1877.85h474.25v4.07H952.06z" transform="rotate(-52.11 1189.279 1879.945)" class="color273657 svgShape"></path><path fill="#482757" d="m1332.38 1693 2.3 2a5.73 5.73 0 0 0 7.91-.44L1390 1644a5.74 5.74 0 0 0-.35-8.19l-8.56-7.68a5.73 5.73 0 0 0-8.46.88l-41.15 56.24a5.74 5.74 0 0 0 .9 7.75Z" class="color273657 svgShape"></path><path fill="#8526fe" d="m1371.31 1679.89 65.68 51.58a19.13 19.13 0 0 0 27.1-3.54l1.58-2.1a19.13 19.13 0 0 0-3.24-26.36l-64.88-52.6a19.13 19.13 0 0 0-27.26 3.26l-2.38 3.12a19.12 19.12 0 0 0 3.4 26.64Z" class="color2c4fa0 svgShape"></path><path fill="#6cc5ba" d="M1228.3 1918.63c-2.79 13.07-13.92 54.36-22.41 59.38-9.43 5.57-61.06 14-66.48 14.84a414.28 414.28 0 0 1-4.88-41.21c20.3-3.23 46.25-8 50.55-12.07 6.84-6.4 10-30.52 16.46-32.46a2.92 2.92 0 0 1 1.18-.1 139.34 139.34 0 0 1 20.73 5c.75.26 1.46.5 2.1.75.55.2 1.06.41 1.49.61 1.13.5 1.83.94 1.91 1.27a19.7 19.7 0 0 1-.65 3.99Z" class="color6cc58d svgShape"></path><path fill="#3e9a8f" d="M1228.3 1918.63c-2.79 13.08-13.92 54.36-22.41 59.38-10 5.89-66.94 14.92-66.94 14.92l-2.71-28s31.89 18.82 53.37 12.66c18.79-5.39 32.74-52.94 35.94-64.74.46-1.68.69-2.63.69-2.63l.8 3.26Z" class="color3e9a83 svgShape"></path><path fill="#ffdca8" d="M1225.33 1872.87c-1.13 1.32-1.67 25.87-1.89 39.19a139.34 139.34 0 0 0-20.73-5 2.92 2.92 0 0 0-1.18.1c.52-10.57 1.06-24.37.5-25.19-.9-1.36-4.07-10.62-7.46-11.76s-4.29-4.52-5.2-6.55 2.94-6.34 2.94-6.34a61.37 61.37 0 0 1 0-9.5c.45-3.16 7.68-3.61 7.68-3.61s-.22-2 1.36-6.34 5.43-1.8 5.43-1.8 3.85-8.14 6.1-6.78 14.24 16.73 15.41 19.89-1.41 21.88-2.96 23.69Z" class="colorffb2a8 svgShape"></path><path fill="#6cc5ba" d="m1051.94 1963.89-10.19 75.68a2.92 2.92 0 0 0-.92-1.87c-1.44-.91-5.28-1.14-10-1-11.69.33-28.87 2.84-28.87 2.84s24.88-61 32.11-68.75c3.31-3.57 10.79-5.67 17.87-6.9Z" class="color6cc58d svgShape"></path><path fill="#3e9a8f" d="M1004.94 2035.75s22.78-22 30.46-29.25a153.58 153.58 0 0 0 14-15.38l-3 16.7Z" class="color3e9a83 svgShape"></path><path fill="#ffdca8" d="M1057.56 2006.5s14.47-17.18 20.8-18.31 24 1.58 24.65 6.1-5.43 6.56-5.43 6.56 2.71 5.43 0 7.69a8.57 8.57 0 0 1-5 2.26s1.58 5.43-.68 7.69-6.56 2-6.56 2-3.57 2.94-5.06 3.39-7.6-1.58-9.64 0-3.84 10.86-13.11 10.41.03-27.79.03-27.79Z" class="colorffb2a8 svgShape"></path><path fill="#6cc5ba" d="M1001.94 2039.51s-9.5 25 14.47 26.23 48.39-26.68 44.77-29.39-6.33-6.78-3.62-15.38 5-17.18 1.81-18.09-46.13 19.9-57.43 36.63Z" class="color6cc58d svgShape"></path></svg>